<svg width="45" height="45" viewBox="0 0 48 49" fill="none" xmlns="http://www.w3.org/2000/svg">
<circle cx="24" cy="24.9839" r="24" fill="#3A3CE6" fill-opacity="0.1"/>
<path d="M12 24.9839C12 18.3671 17.3832 12.9839 24 12.9839C26.1112 12.9839 28.0929 13.538 29.8173 14.5019C30.4724 14.868 30.5412 15.752 30.0105 16.2827C29.5996 16.6937 28.9594 16.7499 28.4449 16.4795C27.1149 15.7806 25.6032 15.3839 24 15.3839C18.7068 15.3839 14.4 19.6907 14.4 24.9839C14.4 30.2771 18.7068 34.5839 24 34.5839C29.2932 34.5839 33.6 30.2771 33.6 24.9839C33.6 24.5647 33.573 24.1515 33.5207 23.7463C33.4655 23.3196 33.5908 22.8837 33.8951 22.5794C34.5664 21.9081 35.6988 22.1812 35.85 23.1184C35.948 23.7261 36 24.3489 36 24.9839C36 31.6007 30.6168 36.9839 24 36.9839C17.3832 36.9839 12 31.6007 12 24.9839Z" fill="#3A3CE6"/>
<path d="M35.6459 15.3843C35.1772 14.9159 34.4176 14.9159 33.949 15.3843L23.1004 26.2292C22.7365 26.5929 22.1466 26.5929 21.7827 26.2292L19.337 23.7843C18.8684 23.3159 18.1088 23.3159 17.6401 23.7843C17.1713 24.253 17.1713 25.0131 17.6401 25.4818L21.5003 29.3407C22.0202 29.8603 22.8629 29.8603 23.3827 29.3407L35.6459 17.0818C36.1147 16.6131 36.1147 15.853 35.6459 15.3843Z" fill="#3A3CE6"/>
</svg>
